<?xml version="1.0" encoding="UTF-8"?>
<svg xmlns="http://www.w3.org/2000/svg"
     version="1.2"
     baseProfile="tiny-ps"
     viewBox="0 0 1024 1024"
     width="1024"
     height="1024"

     xmlns:xlink="http://www.w3.org/1999/xlink">
  <title>The Purple Struct</title>
  <desc>Brand logo for The Purple Struct</desc>
  <g>
    <path fill="#c27aff" d="M532.12,287.57c10.42,1.43,18.68-3.97,30.35-3.29,20.86,1.21,36.49,15.43,48.3,31.26l78.1-22.97c-1.13-30.83,15.2-59.44,40.12-76.6,3.06-14.6-33.73-47.37-45.57-54.69-24.78-15.32-56.63-21.32-85.51-19.34-17.88,1.22-53.99,18.2-57.35-11.66-2.62-23.36,25.63-26.76,43.3-29.6,77-12.37,154.28,24.6,188.92,94.76,56.4-1.74,106.49,36.44,105.63,95.36,28.58,7.98,56.4,20.72,78.66,40.68,10.08,9.04,30.96,36.3,37.36,48.48,30.94,58.86,19.07,130.17-24.78,177.62-11.4,12.33-26.34,24.09-41.78,30.56,3.6,15.24,10.63,26.89,12.15,43.03,5.78,61.24-18.27,114.06-70.28,146.92-51.79,32.73-113.11,34.7-170.21,15.07-2.14,27.84,9.16,59.63,26.34,81.47,11.63,14.79,47.05,34.94,23.73,55.49-20.53,18.09-45.93-13.23-57.23-28.28-27.43-36.53-42.17-81.71-35.8-127.66-9.39-7.46-20.71-14.54-29.34-22.84-6.64-6.38-18.4-24.53-24.12-28.23-5.66-3.65-15.61-3.27-23.51-7.5-1.92-1.03-4.72-2.67-6.66-4.19l-34.64,36.64c62.03,37.15,85.67,113.77,127.5,169.87,9.37,17.05-8.23,29.15-15.93,30.12-11.61,1.92-16.69-3.9-23.28-11.85-54.06-65.3-64.85-163.8-168.94-172.33-71.99-5.9-147.29,15.13-213.11-23.48-5.64-3.31-18.1-14.82-21.83-15.93-6.01-1.79-25.09,2.81-35.13,1.7-33.05-3.64-55.68-36.78-53.57-68.91-106.93-27.68-153.07-156.76-99.29-251.47,7.76-13.66,15.55-26.51,27.13-37.78,12.92-12.58,15.84-11.23,19.99-22.77,2.53-7.02,3.81-18.97,4.15-28.49,2.41-68.63,58.67-130.35,119.45-154.8,24.62-9.9,52.92-16.32,79.51-15.75,3.51-75.34,96.27-109.34,152.88-63.87,30.36,24.39,43.82,63.56,34.59,101.63-2.6,10.74-9.18,19.31-11.31,29.85M286.6,192.7c-70.2-3.38-143.61,44.09-154.43,116.8,38.08-7.64,77.64,13.78,90.46,50.87,4.05,11.74,2.33,22.67,5.82,33.96l97.08,51.15c6.27-7.7,13.64-16.81,22.43-21.72,7.17-4,14.13-3.89,20.25-8.42l-1.55-160.28c-36.98,2.04-69.73-28.26-80.06-62.36ZM466.08,278.14c-11.66-11.37-22.91-23.17-34.48-34.64l-24.96,9.68.04,162.87,26.89,7.64,66.85-54.83c-7.63-20.52-2.04-34.47,4.55-53.74-10.3-7.17-18.46-16.86-27.24-25.71l-11.66-11.28ZM708.83,475.04c3.21-2.31,5.37-5.46,15.22-8.09,30.56-8.16,64.28,1.9,78.9,33.31,2.65,5.7,2.01,15.25,6.65,18.48,31.55,4.58,59.32,17.74,85.71,35.04,16.38-8.79,30.42-15.41,42.85-29.73,43.26-49.82,32.59-124.82-17.78-164.24-15.15-11.86-31.69-17.76-49.12-25.17-21.83,65.69-121.69,75.94-158.13,27.24-5-6.69-13.93-21.05-16-32.78l-77.06,23.42-3.81,4.56-3.86,20.54c16.02,15.2,30.23,33.08,46.02,48.39M662.64,482.48c-10.34-10.04-74.1-77.28-79.58-78.34-3.09-.6-3.73,6.84-28.95,5.91-23-.85-27.54-10.57-29.01-10.09-7.2,2.33-21.66,14.93-21.66,14.93l-48.82,44.26c6.44,13.27,9.94,24.28,7.79,39.3-.93,6.52-7.2,15.16-3.04,19.82l115.98,86.01c18.54-9.01,37.27-13.4,55.86-1.89l54.85-50.02c1.82-3.35-4.66-5.75-4.57-25.84.07-15.06,5.58-18.45,5.09-20.98-.82-4.18-19.69-18.96-23.93-23.08ZM83.99,416.29c-4-3.68-13.72,18.41-15.02,21.61-26.38,64.74-4.05,142.27,62.44,170.71,28.05,12,19.44.87,40.45-9.2,11.91-5.71,23.36-6.51,36.48-4.92,8.46,1.02,21.66,9.3,26.98,7.84,2.87-.78,38.24-34.12,44.49-39.43,12.18-10.35,24.91-18.05,35.54-29.45,1.08-1.16,3.53-1.58,5.1-2.2-7.99-16.84-9.33-31.1-8.59-49.72-19.51-9.01-38.63-19.16-57.59-29.28-7.02-3.75-37.18-23.84-42.2-20.91-.93.54-9.64,12.81-14.02,16.31-37.16,29.7-99.88,14.81-114.07-31.35ZM509.89,716.55c5.02-3.84,38.02-31.28,38.64-33.77-6.8-17.16-7.32-31.33-.69-48.79l-111.41-83.43c-25.32,20.74-60.19,26.8-87.59,6.34l-86.66,74.34c1.03,13.24,5.61,25.74,3.79,39.24-1.28,9.49-7.38,15.71-10.24,24.18,7.02,2.51,12.04,8.07,18.77,11.62,44.62,23.5,119.49,8.56,170.75,11.39,14.73.82,45.69,8.8,57.44,5.17,3.95-1.22,5.07-4.67,7.2-6.3ZM868.39,723.32c10.01-10.34,20.46-27.77,24.31-41.64,19.41-70.01-27.87-111.25-91.3-125.26-13.94,29.48-45.58,42.44-76.73,32.6-4.39-1.39-7.52-7.1-13.15-4.94l-51.43,49.22c8.85,18.46,9.29,42.21-3.99,58.85-3.15,3.95-13.19,9.6-12.26,13.19,52.07,65.49,163.7,80.85,224.55,18Z"/>
    <path fill="#c27aff" d="M891.97,846.9c16.19-3.19,29.72,13.43,24.75,28.98-4.96,15.52-66.54,48.45-82.73,51.3-18.87,3.31-37.23-10.21-29.55-29.56,4.82-12.14,36.96-20.86,49.71-27.77,9.99-5.42,28.28-21.07,37.83-22.95Z"/>
    <path fill="#c27aff" d="M969.49,754.75c29.92-4.19,43.74,40.6,14.98,52.8-38.87,16.49-57.31-46.87-14.98-52.8Z"/>
  </g>
</svg>